<?xml version="1.0" encoding="UTF-8"?>
<svg id="Logos" xmlns="http://www.w3.org/2000/svg" viewBox="0 0 515 185">
  <defs>
    <style>
      .cls-1 {
        fill: #004cce;
      }

      .cls-2 {
        fill: #03153a;
      }

      .cls-3 {
        fill: #1baaff;
      }

      .cls-4 {
        fill: #ee5007;
      }

      .cls-5 {
        fill: #0275e7;
      }
    </style>
  </defs>
  <g>
    <g>
      <path class="cls-3" d="M56.89,135.49c-3.08-8.63-3.21-18.97-3.21-27.92v-30.12c0-.37,0-.74,0-1.12-8.22,4.82-15.73,8.39-21.61,16.18l-.59,15.06c0,5.23,0,14.42,2.36,24.86,8.25,3.1,15.56,4.43,23.05,3.06Z"/>
      <path class="cls-3" d="M109.73,108.68c8.22-4.82,15.73-8.39,21.61-16.18l.59-15.06c0-5.23,0-14.42-2.36-24.86-8.25-3.1-15.55-4.43-23.05-3.06,3.08,8.63,3.21,18.97,3.21,27.92v30.12c0,.37,0,.74,0,1.12Z"/>
    </g>
    <path class="cls-3" d="M81.71,24.35c4.12,1.99,7.63,4.25,10.64,6.73,7.78-2.42,16.86-4.02,26.73-3.31-6.82-10.06-17.25-19.42-33.23-25.84l-4.14-1.67-4.14,1.67c-35.51,14.28-43.65,43.01-45.53,61.9,4.59-3.3,8.71-5.67,11.51-7.29l13.34-7.02c3.94-9.3,12.55-19.23,24.82-25.16Z"/>
    <path class="cls-3" d="M81.71,160.65c-4.12-1.99-7.63-4.25-10.64-6.73-7.78,2.42-16.86,4.02-26.73,3.31,6.82,10.06,17.25,19.42,33.23,25.84l4.14,1.67,4.14-1.67c35.51-14.28,43.65-43.01,45.53-61.9-4.59,3.3-8.71,5.67-11.51,7.29l-13.34,7.02c-3.94,9.3-12.55,19.23-24.82,25.16Z"/>
    <g>
      <path class="cls-5" d="M106.52,135.49c-9.01-1.64-18.04-6.71-25.79-11.18l-26.09-15.06c-.32-.19-.64-.38-.96-.56.07,9.53-.6,17.82,3.2,26.81l12.75,8.04c4.53,2.61,12.49,7.21,22.71,10.39,6.81-5.59,11.61-11.26,14.18-18.43Z"/>
      <path class="cls-5" d="M109.73,76.32c-.07-9.53.6-17.82-3.2-26.81l-12.75-8.04c-4.53-2.61-12.49-7.21-22.71-10.39-6.81,5.59-11.61,11.26-14.18,18.43,9.01,1.64,18.04,6.71,25.79,11.18l26.09,15.06c.32.19.64.38.96.56Z"/>
    </g>
    <path class="cls-5" d="M22.69,58.43c3.78-2.57,7.5-4.48,11.15-5.85,1.79-7.94,4.95-16.61,10.5-24.81-12.13.87-25.44,5.23-39,15.86l-3.52,2.75-.63,4.42c-5.38,37.89,15.42,59.31,30.84,70.38-.56-5.63-.56-10.38-.56-13.61l.59-15.06c-6.08-8.06-10.38-20.49-9.38-34.07Z"/>
    <path class="cls-5" d="M140.72,126.58c-3.78,2.57-7.5,4.48-11.15,5.85-1.79,7.94-4.95,16.61-10.5,24.81,12.13-.87,25.44-5.23,39-15.86l3.52-2.75.63-4.42c5.38-37.89-15.42-59.31-30.84-70.38.56,5.63.56,10.38.56,13.61l-.59,15.06c6.08,8.06,10.38,20.49,9.38,34.07Z"/>
    <g>
      <path class="cls-1" d="M32.07,92.5c5.93-6.98,14.82-12.27,22.58-16.74l26.09-15.06c.32-.19.65-.37.97-.55-8.29-4.71-15.13-9.43-24.82-10.63l-13.34,7.02c-4.53,2.61-12.49,7.21-20.35,14.47,1.44,8.69,3.94,15.68,8.88,21.5Z"/>
      <path class="cls-1" d="M81.71,124.86c8.29,4.71,15.13,9.43,24.82,10.63l13.34-7.02c4.53-2.61,12.49-7.21,20.35-14.47-1.44-8.69-3.94-15.68-8.88-21.5-5.93,6.98-14.82,12.27-22.58,16.74l-26.09,15.06c-.32.19-.65.37-.97.55Z"/>
    </g>
    <path class="cls-1" d="M140.72,58.43c.33,4.56.13,8.73-.51,12.58,5.98,5.52,11.91,12.59,16.23,21.5,5.31-10.94,8.19-24.65,5.77-41.7l-.63-4.42-3.52-2.75c-30.12-23.61-59.08-16.3-76.37-8.48,5.15,2.33,9.27,4.71,12.07,6.32l12.75,8.04c10.02-1.24,22.93,1.25,34.2,8.91Z"/>
    <path class="cls-1" d="M22.69,126.57c-.33-4.56-.13-8.73.51-12.58-5.98-5.52-11.91-12.59-16.23-21.5-5.31,10.94-8.19,24.65-5.77,41.7l.63,4.42,3.52,2.75c30.12,23.61,59.08,16.3,76.37,8.48-5.15-2.33-9.27-4.71-12.07-6.32l-12.75-8.04c-10.02,1.24-22.93-1.26-34.2-8.91Z"/>
  </g>
  <g>
    <g>
      <path class="cls-2" d="M257.03,45.78v61.43h-10.08v-26.87h-28.9v26.87h-10.08v-61.43h10.08v26.34h28.9v-26.34h10.08Z"/>
      <path class="cls-2" d="M268.72,69.65c2.03-3.77,4.8-6.7,8.31-8.79,3.51-2.09,7.38-3.14,11.62-3.14,3.83,0,7.17.75,10.03,2.25,2.86,1.5,5.14,3.37,6.85,5.61v-7.07h10.17v48.7h-10.17v-7.25c-1.71,2.3-4.04,4.21-6.98,5.75-2.95,1.53-6.31,2.3-10.08,2.3-4.18,0-8.01-1.07-11.49-3.23-3.48-2.15-6.23-5.16-8.26-9.02-2.03-3.86-3.05-8.23-3.05-13.13s1.02-9.22,3.05-12.99ZM303.45,74.07c-1.39-2.48-3.2-4.36-5.44-5.66-2.24-1.3-4.66-1.95-7.25-1.95s-5.01.63-7.25,1.9c-2.24,1.27-4.05,3.12-5.44,5.57-1.39,2.45-2.08,5.35-2.08,8.71s.69,6.31,2.08,8.84c1.38,2.53,3.21,4.46,5.48,5.79,2.27,1.33,4.67,1.99,7.2,1.99s5.01-.65,7.25-1.94c2.24-1.3,4.05-3.2,5.44-5.7,1.38-2.5,2.08-5.44,2.08-8.79s-.69-6.28-2.08-8.75Z"/>
      <path class="cls-2" d="M326.81,69.65c2.03-3.77,4.8-6.7,8.31-8.79,3.51-2.09,7.41-3.14,11.71-3.14,3.18,0,6.32.69,9.41,2.08,3.09,1.39,5.55,3.23,7.38,5.52v-23.51h10.17v65.41h-10.17v-7.34c-1.65,2.36-3.93,4.3-6.85,5.83s-6.26,2.3-10.03,2.3c-4.24,0-8.12-1.07-11.62-3.23-3.51-2.15-6.27-5.16-8.31-9.02-2.03-3.86-3.05-8.23-3.05-13.13s1.02-9.22,3.05-12.99ZM361.55,74.07c-1.39-2.48-3.2-4.36-5.44-5.66-2.24-1.3-4.66-1.95-7.25-1.95s-5.01.63-7.25,1.9c-2.24,1.27-4.05,3.12-5.44,5.57-1.39,2.45-2.08,5.35-2.08,8.71s.69,6.31,2.08,8.84c1.38,2.53,3.21,4.46,5.48,5.79s4.67,1.99,7.2,1.99,5.01-.65,7.25-1.94c2.24-1.3,4.05-3.2,5.44-5.7,1.38-2.5,2.08-5.44,2.08-8.79s-.69-6.28-2.08-8.75Z"/>
      <path class="cls-2" d="M400.72,59.79c2.44-1.38,5.35-2.08,8.71-2.08v10.43h-2.56c-3.95,0-6.94,1-8.97,3.01-2.03,2-3.05,5.48-3.05,10.43v25.63h-10.08v-48.7h10.08v7.07c1.47-2.48,3.43-4.4,5.88-5.79Z"/>
      <path class="cls-2" d="M424.33,104.87c-3.71-2.09-6.63-5.04-8.75-8.84-2.12-3.8-3.18-8.21-3.18-13.21s1.09-9.34,3.27-13.17c2.18-3.83,5.16-6.78,8.93-8.84,3.77-2.06,7.98-3.09,12.64-3.09s8.87,1.03,12.64,3.09c3.77,2.06,6.75,5.01,8.93,8.84,2.18,3.83,3.27,8.22,3.27,13.17s-1.12,9.34-3.36,13.17c-2.24,3.83-5.29,6.79-9.15,8.88-3.86,2.09-8.12,3.14-12.77,3.14s-8.75-1.05-12.46-3.14ZM444.08,97.4c2.27-1.24,4.11-3.09,5.53-5.57,1.41-2.48,2.12-5.48,2.12-9.02s-.68-6.53-2.03-8.97c-1.36-2.44-3.15-4.29-5.39-5.52-2.24-1.24-4.66-1.86-7.25-1.86s-4.99.62-7.2,1.86c-2.21,1.24-3.96,3.08-5.26,5.52-1.3,2.45-1.95,5.44-1.95,8.97,0,5.25,1.34,9.3,4.02,12.15,2.68,2.86,6.05,4.29,10.12,4.29,2.59,0,5.02-.62,7.29-1.86Z"/>
      <path class="cls-2" d="M504.99,60.1c3.03,1.59,5.41,3.95,7.12,7.07,1.71,3.12,2.56,6.89,2.56,11.31v28.73h-9.99v-27.22c0-4.36-1.09-7.7-3.27-10.03-2.18-2.33-5.16-3.49-8.93-3.49s-6.76,1.16-8.97,3.49c-2.21,2.33-3.31,5.67-3.31,10.03v27.22h-10.08v-48.7h10.08v5.57c1.65-2,3.76-3.57,6.32-4.68,2.56-1.12,5.29-1.68,8.18-1.68,3.83,0,7.26.8,10.3,2.39Z"/>
    </g>
    <g>
      <path class="cls-2" d="M211.92,125.72c.89-.51,1.9-.76,3.03-.76,1.22,0,2.31.29,3.28.86.97.57,1.73,1.38,2.29,2.43.56,1.04.84,2.25.84,3.63s-.28,2.58-.84,3.65c-.56,1.07-1.33,1.9-2.3,2.49s-2.07.89-3.26.89-2.19-.25-3.07-.76c-.88-.51-1.54-1.16-1.98-1.95v2.49h-2.24v-18.23h2.24v7.24c.46-.8,1.13-1.46,2.02-1.97ZM218.45,129.22c-.41-.76-.96-1.33-1.66-1.72-.7-.39-1.47-.59-2.3-.59s-1.58.2-2.28.6c-.7.4-1.26.99-1.68,1.75-.42.76-.63,1.65-.63,2.65s.21,1.91.63,2.67c.42.76.98,1.35,1.68,1.75.7.4,1.46.6,2.28.6s1.6-.2,2.3-.6c.7-.4,1.25-.99,1.66-1.75.41-.76.62-1.66.62-2.7s-.21-1.9-.62-2.66Z"/>
      <path class="cls-2" d="M235.23,125.18l-8.13,19.85h-2.32l2.66-6.5-5.44-13.35h2.49l4.24,10.94,4.19-10.94h2.32Z"/>
      <path class="cls-4" d="M253.55,138.68l-6.26-7.66v7.66h-3.45v-17.19h3.45v7.71l6.26-7.71h4.16l-7.09,8.52,7.29,8.67h-4.36Z"/>
      <path class="cls-4" d="M258.68,128.14c.55-1.07,1.3-1.89,2.24-2.46.94-.57,2-.86,3.17-.86,1.02,0,1.91.21,2.67.62s1.38.93,1.84,1.55v-1.95h3.47v13.65h-3.47v-2c-.44.64-1.06,1.17-1.84,1.59-.78.42-1.68.63-2.7.63-1.15,0-2.2-.3-3.14-.89-.94-.59-1.69-1.42-2.24-2.5-.55-1.07-.83-2.31-.83-3.71s.27-2.6.83-3.67ZM268.1,129.7c-.33-.6-.77-1.06-1.33-1.38-.56-.32-1.16-.48-1.8-.48s-1.23.16-1.77.47c-.54.31-.98.77-1.32,1.37-.34.6-.5,1.31-.5,2.13s.17,1.54.5,2.16c.34.62.78,1.09,1.33,1.42.55.33,1.14.49,1.76.49s1.24-.16,1.8-.48c.56-.32,1-.78,1.33-1.38.33-.6.49-1.32.49-2.16s-.16-1.56-.49-2.16Z"/>
      <path class="cls-4" d="M275.44,122.83c-.4-.39-.6-.87-.6-1.44s.2-1.06.6-1.44.91-.58,1.52-.58,1.11.19,1.51.58c.4.39.6.87.6,1.44s-.2,1.05-.6,1.44c-.4.39-.91.58-1.51.58s-1.11-.19-1.52-.58ZM278.66,125.03v13.65h-3.45v-13.65h3.45Z"/>
      <path class="cls-4" d="M287,125.45c.71-.41,1.53-.62,2.45-.62v3.62h-.91c-1.08,0-1.9.25-2.45.76-.55.51-.83,1.4-.83,2.66v6.8h-3.45v-13.65h3.45v2.12c.44-.72,1.02-1.29,1.74-1.7Z"/>
      <path class="cls-4" d="M293.95,138.03c-1.05-.58-1.88-1.41-2.48-2.48s-.9-2.3-.9-3.7.31-2.63.92-3.7c.62-1.07,1.46-1.89,2.52-2.48s2.26-.87,3.57-.87,2.5.29,3.57.87,1.91,1.41,2.52,2.48c.62,1.07.92,2.3.92,3.7s-.32,2.63-.95,3.7-1.49,1.89-2.56,2.48c-1.08.58-2.28.87-3.61.87s-2.5-.29-3.55-.87ZM299.26,135.44c.55-.3.99-.76,1.32-1.37.33-.61.49-1.35.49-2.22,0-1.3-.34-2.29-1.02-2.99-.68-.7-1.51-1.05-2.5-1.05s-1.81.35-2.48,1.05c-.66.7-1,1.7-1,2.99s.32,2.29.97,2.99c.65.7,1.47,1.05,2.45,1.05.62,0,1.21-.15,1.76-.46Z"/>
      <path class="cls-4" d="M309.09,138.3c-.89-.4-1.59-.95-2.11-1.64-.52-.69-.8-1.45-.85-2.29h3.47c.07.53.32.96.78,1.31.45.34,1.01.52,1.69.52s1.17-.13,1.54-.39c.37-.26.55-.6.55-1.01,0-.44-.23-.78-.68-1-.45-.22-1.17-.46-2.16-.73-1.02-.25-1.85-.5-2.5-.76-.65-.26-1.21-.66-1.68-1.21s-.7-1.27-.7-2.19c0-.76.22-1.45.65-2.07s1.06-1.12,1.87-1.48,1.77-.54,2.87-.54c1.63,0,2.92.41,3.89,1.22.97.81,1.5,1.91,1.6,3.29h-3.3c-.05-.54-.28-.97-.68-1.29-.4-.32-.94-.48-1.61-.48-.62,0-1.1.11-1.44.34-.34.23-.5.55-.5.96,0,.46.23.81.69,1.05.46.24,1.17.48,2.14.73.99.25,1.8.5,2.44.76.64.26,1.19.67,1.66,1.22s.71,1.28.73,2.18c0,.79-.22,1.5-.65,2.12-.44.62-1.06,1.11-1.87,1.47s-1.76.53-2.85.53-2.12-.2-3.01-.6Z"/>
    </g>
  </g>
</svg>